<svg xmlns="http://www.w3.org/2000/svg" xmlns:xlink="http://www.w3.org/1999/xlink" viewBox="0 0 392.63 333.96"><defs><style>.cls-1{fill:url(#linear-gradient);}.cls-2{fill:url(#linear-gradient-2);}.cls-3{fill:#3f322d;}.cls-4{fill:url(#linear-gradient-3);}.cls-5{fill:url(#linear-gradient-4);}.cls-6{fill:url(#linear-gradient-5);}.cls-7{fill:url(#linear-gradient-6);}.cls-8{fill:#97676c;}.cls-9{fill:#262731;}.cls-10{fill:#a6676c;}.cls-11{fill:#3e3e3e;}.cls-12{fill:url(#linear-gradient-7);}.cls-13{fill:#e4c7a6;}.cls-14{fill:#5c3e30;}.cls-15{fill:url(#linear-gradient-8);}.cls-16{fill:url(#linear-gradient-9);}.cls-17{fill:#292629;}.cls-18{fill:#101112;}.cls-19{fill:url(#linear-gradient-10);}.cls-20{fill:#ffe7e4;}.cls-21{fill:url(#linear-gradient-11);}.cls-22{fill:url(#linear-gradient-12);}.cls-23{fill:#3d3a3d;}.cls-24{fill:#5b453d;}.cls-25{fill:#fdf1f3;}.cls-26{fill:#282932;}</style><linearGradient id="linear-gradient" x1="367.15" y1="355.68" x2="386.36" y2="299.03" gradientUnits="userSpaceOnUse"><stop offset="0" stop-color="#6f533d"/><stop offset="0.19" stop-color="#735741"/><stop offset="0.38" stop-color="#7f634b"/><stop offset="0.58" stop-color="#94765c"/><stop offset="0.78" stop-color="#b19275"/><stop offset="0.97" stop-color="#d5b594"/><stop offset="1" stop-color="#dbba99"/></linearGradient><linearGradient id="linear-gradient-2" x1="288.95" y1="357.08" x2="365.31" y2="355.11" gradientUnits="userSpaceOnUse"><stop offset="0" stop-color="#b78d67"/><stop offset="0.14" stop-color="#b9916d"/><stop offset="0.32" stop-color="#c09d7d"/><stop offset="0.42" stop-color="#c5a589"/><stop offset="0.73" stop-color="#be9e85"/><stop offset="1" stop-color="#cfbaa5"/></linearGradient><linearGradient id="linear-gradient-3" x1="240.5" y1="303.79" x2="385.82" y2="294.44" gradientUnits="userSpaceOnUse"><stop offset="0" stop-color="#d3c0ac"/><stop offset="0.72" stop-color="#bf9877"/><stop offset="0.8" stop-color="#c09b7b"/><stop offset="0.88" stop-color="#c5a487"/><stop offset="0.95" stop-color="#ccb39a"/><stop offset="1" stop-color="#d3c0ac"/></linearGradient><linearGradient id="linear-gradient-4" x1="157.33" y1="242.79" x2="223.41" y2="410.38" gradientUnits="userSpaceOnUse"><stop offset="0" stop-color="#cfbba6"/><stop offset="0.92" stop-color="#d3b396"/><stop offset="1" stop-color="#d3b294"/></linearGradient><linearGradient id="linear-gradient-5" x1="97.61" y1="239.95" x2="113.94" y2="257.07" gradientUnits="userSpaceOnUse"><stop offset="0.02" stop-color="#c8bbb6"/><stop offset="0.75" stop-color="#d3baa6"/><stop offset="1" stop-color="#d8ba9f"/></linearGradient><linearGradient id="linear-gradient-6" x1="262.82" y1="178.1" x2="238.93" y2="296.73" gradientUnits="userSpaceOnUse"><stop offset="0" stop-color="#dbccce"/><stop offset="0" stop-color="#d7c9cb"/><stop offset="0.03" stop-color="#b8adb0"/><stop offset="0.07" stop-color="#9d9699"/><stop offset="0.11" stop-color="#878386"/><stop offset="0.15" stop-color="#767478"/><stop offset="0.21" stop-color="#6b6a6d"/><stop offset="0.29" stop-color="#646468"/><stop offset="0.5" stop-color="#626266"/><stop offset="0.66" stop-color="#67676b"/><stop offset="0.86" stop-color="#76777a"/><stop offset="0.98" stop-color="#828386"/></linearGradient><linearGradient id="linear-gradient-7" x1="371.23" y1="241.79" x2="398.81" y2="264.89" gradientUnits="userSpaceOnUse"><stop offset="0.12" stop-color="#f8dec0"/><stop offset="0.23" stop-color="#e7cbae"/><stop offset="0.43" stop-color="#cdad93"/><stop offset="0.63" stop-color="#ba977f"/><stop offset="0.82" stop-color="#af8a73"/><stop offset="1" stop-color="#ab866f"/></linearGradient><linearGradient id="linear-gradient-8" x1="412.8" y1="245.2" x2="436.74" y2="233.62" gradientUnits="userSpaceOnUse"><stop offset="0" stop-color="#805d42"/><stop offset="0.18" stop-color="#88654a"/><stop offset="0.45" stop-color="#9e7c5f"/><stop offset="0.79" stop-color="#c2a081"/><stop offset="1" stop-color="#dbba99"/></linearGradient><linearGradient id="linear-gradient-9" x1="375.83" y1="128.03" x2="399.13" y2="227.31" xlink:href="#linear-gradient-7"/><linearGradient id="linear-gradient-10" x1="432.31" y1="217.94" x2="442.38" y2="236.3" gradientUnits="userSpaceOnUse"><stop offset="0" stop-color="#3f0011"/><stop offset="1" stop-color="#e7ace0"/></linearGradient><linearGradient id="linear-gradient-11" x1="464.25" y1="217.46" x2="443.77" y2="192.39" xlink:href="#linear-gradient-8"/><linearGradient id="linear-gradient-12" x1="383.17" y1="246.83" x2="420.84" y2="201.77" xlink:href="#linear-gradient-8"/></defs><title>dawgeyes</title><g id="leftLegFront"><path class="cls-1" d="M384,299s6,10,12,10c0,0-6,2-10-2,0,0,8,8,9,12-5-5-6-4-7-3,0,0,7,6,5,14a15.77,15.77,0,0,0-1-4,17.11,17.11,0,0,0,1,12,6.93,6.93,0,0,1-3-4s0,7,2,9c0,0-1,1-3-3,0,0,1,7,4,8a7.35,7.35,0,0,0-6,1s3,5,3,7c-3-3-5-3-4-1,0,0,3,14-1,16s-12-1-14-2a35.36,35.36,0,0,1-1-6s-7-2-9-1c0,0,5-2,6-4a5.64,5.64,0,0,1-6,0,6.46,6.46,0,0,0,5-3,65.91,65.91,0,0,1-2-9s-6-6-5-10V319c0-5,4-18,5-24s8-12,9-13,11,11,13,13c0,0-2,1-5-1Z" transform="translate(-75.52 -92)"/></g><g id="legRightFront"><path class="cls-2" d="M347,328c1,8,8,6,9,17,0,0-5-10-9-5,0,0,6,2,6,12,0,0-2-9-6-6,0,0,2,12-2,18,0,0,3-6,0-7,0,0-4,11,0,18,1,4,2,14-10,13,0,0,6-2,6-5,0,0-3,11,1,13s6-3,7-3,4,0,4,3c0,0,12-1,14,0s3,6,0,7c0,0,4,2,2,7,0,0,0,6-4,7,0,0,0,4-8,2,0,0,2,4-5,5s-22,0-25-2c-4,2-13,1-13-1-4,1-9,1-7-3,0,0-4-3,0-7,0,0-2-8,1-12a65.89,65.89,0,0,0-3-10,12,12,0,0,0-3,8s-2-12,5-19c-5,1-4,3-5,5s-2-8,0-12c0,0-5,4-5,9,0,0-1-13,4-17,0,0-5,1-6,6,0,0,3-16,8-18,0,0-5-3-8,0,0,0,4-5,6-7,0,0-6,3-11,3,0,0,8-3,7-6a11.29,11.29,0,0,1-10,1s9-5,11-10,11-6,13-10,5-10,14-9,8-5,14-8,10-3,15-6a14.15,14.15,0,0,0,7-12c0-4,4,14-1,20s-10,4-12,10A23.55,23.55,0,0,0,347,328Z" transform="translate(-75.52 -92)"/></g><g id="tag"><path class="cls-3" d="M386,283s1,0,1,2h2v17h-6V285h2S385,283,386,283Z" transform="translate(-75.52 -92)"/></g><g id="body"><path id="chest" class="cls-4" d="M403,260l-4,1c-2,0-2,3-2,3,0-3-3-2-3-2,0,4-5,6-5,6,2-7,0-6,0-6l-3,8-2,15c3,2,3,7,3,7-2-4-4-2-4-2,2,1,3,5,3,5,0-4-4,0-4,0,0,3,4,4,4,4,1,6-3,12-3,12,1,2-2,6-2,6-2-3-4-3-4-3,1,3-2,5-2,5-2-5-5-1-5-1,2,3,0,8,0,8,0-5-3-4-3-4-2,2,0,7,0,7-3-1-5-5-5-5-2,2,2,9,2,9-5,0-7-10-7-10-2,1,2,12,2,12-7,0-10-9-10-9-3,6,2,16,2,16-5,0-8-8-8-8-1,3,2,10,2,10-4-2-8-9-8-9-2,2,3,12,3,12-5-1-6-6-6-6-2,1,0,10,0,10-5-3-5-12-5-12-3,2,0,13,0,13-7-3-10-16-10-16,1,8-3,12-3,12a7.1,7.1,0,0,1-6,4c1-2-1-7-1-7-2,4-7,4-7,4,4-2,1-9,1-9-1,4-7,5-7,5-4,3-9,0-9,0,3-2,3-6,3-6-5,1-5-2-5-2,4-4,0-6,0-6-2-4-5-2-5-2a7.1,7.1,0,0,0-4,6c-1-7,1-10,1-10-6-1-6,13-6,13-2-1-7-11-7-11-2,6,3,10,3,10-4,0-8-10-8-10-2,4,4,10,4,10-8-1-8-12-8-12-3,2,1,12,1,12-6-3-6-15-6-15-7,2-5,8-5,8a5.37,5.37,0,0,1-3-6l-2,4c-3,0-3-12-3-12-1,2-2,8-2,8-3-2-2-9-2-9-3-1-3,3-3,3-3-3-2-9-2-9a27.67,27.67,0,0,0-1,8,2.94,2.94,0,0,1-3-3,2.19,2.19,0,0,0-1,3s-3,0-2-4c0,0-2-3-4-1a3.53,3.53,0,0,1,1-4,4.83,4.83,0,0,0-4,0s0-3,1-4c0,0-3-2-4,0a2.19,2.19,0,0,1-1-3s-3-1-4,0a3.55,3.55,0,0,1,2-3c.44-.22,7.22-10.73,19-15,41.87-15.18,136-41,136-41Z" transform="translate(-75.52 -92)"/><path id="legBackRight" class="cls-5" d="M113,249s-1,19,1,20,5,4,8,3c0,0,3,15,2,17,0,0,4,4,7,4,0,0,1,10,5,9,0,0-1,8,3,10,0,0,2,5,6,6,0,0-2,12,1,16,0,0-2,10,1,12,0,0-1,12,3,12,0,0,2,11,4,12,0,0-1-4,1-3,0,0,2,5,4,6,0,0,2-5,3-3,0,0-2,13,0,17,0,0,0-6,2-4,0,0-2,9,3,12,0,0-2-3-1-6l4,10s2,11,0,14c0,0,0,6,10,6a11,11,0,0,0,3-7s0,8,8,5c0,0,2,0,0-5,0,0,3,9,2,12,0,0,8,4,8-3,0,0,5,6,8,3,0,0,13,6,17-3,0,0,7,6,12,1,0,0,2-5,1-8,0,0,6,2,7-2,0,0,2-6-6-7,0,0-3-4-6-3,0,0,2-4-8-4s-13-7-13-7-6-8-4-13c0,0,3,1,3,4,0,0,2-2,1-6a2.94,2.94,0,0,1,3,3,8.68,8.68,0,0,0-2-9c-4-4-3-13-3-13s3,1,3,3a44,44,0,0,0-1-9,2.94,2.94,0,0,1,3,3s3-8,0-14a20.42,20.42,0,0,0-4-18s7,2,8-11l-15-86-64-8S113,240,113,249Z" transform="translate(-75.52 -92)"/><path id="tail" class="cls-6" d="M112,203c-10,7-12,12-15,21-1.3,3.91-8,7-10,10s-14,25-11,32,3,8,7,8,5,5,17-13c0,0,7-8,12-9C123,244,123,213,112,203Z" transform="translate(-75.52 -92)"/><path id="bodyGrey" class="cls-7" d="M113,239s-16-24-5-34,39-24,49-27,21-10,21-10h43c12-2,27,5,27,5,11-5,17,5,17,5,16-2,20,4,20,4,3-1,36-2,36-2,5-2,78,54,80,65l-31,8-11,13s-1,11-6,16c0,0,4-10,3-13,0,0-1,9-7,13,0,0,6-7,4-13,0,0-2,7-8,8,0,0,3-4,3-8,0,0-6,1-9,8,0,0,0-7,4-11a23,23,0,0,1-15,6c-4,0-10,12-16,13,0,0,9-15,16-16s7-3,7-3-15,2-16,4a15.12,15.12,0,0,1-12,9c-8,1-10,22-14,14,0,0,5,8,0,12a17.27,17.27,0,0,0-2-7s-1,7-14,9c0,0,11-5,10-9a25.59,25.59,0,0,1-15,9s10-8,11-13c0,0-6.8,10.44-15.9,8.72,0,0,6.9-2.72,6.9-6.72,0,0-7.53.6-8.26,3.8,0,0-.74-5.8,2.26-7.8,0,0-8,3-5,10,0,0-6-9-1-12,0,0-1,9-8,10,0,0,3.73-3.92,1.86-6,0,0-8.86,7-9.86,13,0,0-2-9,0-12,0,0-3-3-4,1,0,0-3-4-2-7,0,0-5,0-5,3,0,0-2.18-4.15-1.09-5.57,0,0-10.91,11.57-9.91,18.57,0,0-4.18-5.9-2.09-10.45,0,0-3.91,3.45-2.91,8.45,0,0-3-5-2-8a7.27,7.27,0,0,0-5,5s-4-2-3-5c0,0-2-5-4-2,0,0-4-1-2-5a3.1,3.1,0,0,0-4,2s-5-6-4-9c0,0-2-6-5-4a47.09,47.09,0,0,1,2-5s-4,1-5,3l-2-4s-5-2-7,1c0,0,2-6,6-5,0,0-8-2-12,2,0,0,0-5,4-6,0,0-8,1-8,4,0,0-1-6,1-7,0,0-10,4-7,5,0,0-3-3,0-5,0,0-3-3-4-1,0,0,0-5,5-4,0,0-2-3-5-1,0,0,0-5,5-5,0,0-4-3-7,0,0,0,1-5,5-5,0,0-7-4-9-2,0,0,4-6,6-5,0,0-4-2-6,0,0,0,0-4,2-4,0,0-7-4-8,0,0,0-2,0,0,4a2.77,2.77,0,0,0-4,0s4,2,4,5c0,0-4-2-4,0,0,0,5,3,4,7,0,0-1-3-3-2,0,0,3,8,3,10a7.1,7.1,0,0,1-4,6s1-3-1-4c0,0-3,2-3,4,0,0-2-1-1-4,0,0-3,0-3,2,0,0-3-2-2-5,0,0-3,1-3,3,0,0-3-2-2-4,0,0-4,2-4,4,0,0-1-6,1-8,0,0-3-2-4,0,0,0-2-3,0-4,0,0-5-4-6-1C114,246,110,241,113,239Z" transform="translate(-75.52 -92)"/></g><g id="collar"><path id="collarSecure" class="cls-8" d="M353,228s10,25,24,25h13s1,3-1,9c-10,1-14.82-.54-20-2-10.5-3-32-27-30-43C339,217,347,226,353,228Z" transform="translate(-75.52 -92)"/><path id="collarTag" class="cls-9" d="M361,245l-11-15s-4-2-5,3,9.63,15.13,9.63,15.13S360,248,361,245Z" transform="translate(-75.52 -92)"/><path id="collarLoose" class="cls-10" d="M329,228.8s-1,5.2,0,8.2c7,9,24,29,34,33,5.87,2.35,18,2,27,0,0,0,3-7,1-9-4,3-12,6-23,1-8.19-5.46-23-20-29-31,0,0-6.56-2.79-9.18-3A.76.76,0,0,0,329,228.8Z" transform="translate(-75.52 -92)"/><ellipse id="hole1" class="cls-9" cx="284.74" cy="170.74" rx="1.74" ry="1.26"/><path id="hole2" class="cls-9" d="M375.67,268.19c.17.41-.57.81-1.67.81s-1.84-.4-1.67-.81.88-.59,1.67-.59S375.53,267.84,375.67,268.19Z" transform="translate(-75.52 -92)"/><path id="hook" class="cls-11" d="M394,255s7,8,3,12c-3,3-10,3-10,3v-4s5,1,8-1c0,0,2-4-2-8Z" transform="translate(-75.52 -92)"/><path id="chain" class="cls-11" d="M390.25,270C381,267,377,285,387,284,391,284,394,272,390.25,270Zm-3.57,13c-7.29,0-4.68-13,2.16-11.28C392,273,389.33,283,386.68,283Z" transform="translate(-75.52 -92)"/></g><g id="head"><g id="earRight"><g id="neck"><path class="cls-12" d="M370,252a7.5,7.5,0,0,1,3,6s-1-5,2-6,2,6,0,9c0,0,4-4,4-7,0,0,3,8,5,11,0,0,4-7,4-10,0,0,2,7,0,12a22.18,22.18,0,0,0,4-13s2,10,5,12c0,0-1-5,0-7,0,0,1-3,4,0,0,0,0-2-2-5,0,0,2-1,0-5,0,0-25.76-8-30-8C364,241,370,252,370,252Z" transform="translate(-75.52 -92)"/></g><g id="outsideEar"><path class="cls-13" d="M407,92c-3,0-10,7-11,10,0,0-2,1-4-2,0,0-1,3,0,5,0,0-3,1-4,0,0,0,1,3,2,4,0,0-4-2-4-3,0,0-2,2-1,4s-7,0-8-3c0,0,4,11,7,12s42,15,43,12,5-5,3-15C430,111,407,92,407,92Z" transform="translate(-75.52 -92)"/></g><g id="insideEar"><path class="cls-14" d="M406,94c-3.61,0-11,13-11,17s2,0,4,2,0,4,3,4,1-3,3-3a3.66,3.66,0,0,1,4,4c0,3,6,7,8,6v2s8,2,10-5l-1-5S409,94,406,94Z" transform="translate(-75.52 -92)"/></g></g><g id="jaw"><path class="cls-15" d="M449,228c2,4,1,14-21,23a3.7,3.7,0,0,0,2-3s-3,4-7,5a3.7,3.7,0,0,0,2-3s-2,4-6,4c0,0,3-2,3-3,0,0-8,3-11,2,0,0,1,0,2-2h-7s-5-6-5-10,24-15,24-15Z" transform="translate(-75.52 -92)"/></g><path id="whiteHair" class="cls-16" d="M352,134s-1,1,0,3a19.93,19.93,0,0,0-10-1c-5,1-8-8-19-5-7,2-6,20-7,35,0,0,1,0,2-2,0,0,1,4,0,5,0,0,2,0,2-1,0,0-2,4-3,4h-1s2,4,5,2c0,0,0,5-1,6a7.74,7.74,0,0,0,3-1s2,6,1,9c0,0,2,1,3,0,0,0,4-1,1,6a1.39,1.39,0,0,0,2,0s0,9-1,11a3.1,3.1,0,0,0,2-1s-1,8-2,10c0,0,2,0,3-3,0,0,3,4,2,5,0,0,2,1,3,0,0,0,1,1,0,3,0,0,3,1,3,0,0,0,2,4,1,5,0,0,5,2,6,1,0,0,3,2,3,4,0,0,2,1,3,0,0,0,1,3,0,4a1.39,1.39,0,0,0,2,0,4.83,4.83,0,0,1,0,4s2,1,3,0c0,0,2,2,2,4,0,0,2,0,2-1,0,0,3,3,3,4a3.49,3.49,0,0,0,1-2v4s0-3,1-2c0,0,0,4,1,5,0,0,0-2,1-2,0,0,0,3,1,4,0,0-1-2,0-3,0,0,1,3,2,4,0,0-1-2,0-2l2,2s0-3,1-3a7.74,7.74,0,0,0,1,3s0-3,2-4l2,2s1-2,2-1v2c1-2,2-3,3-2,0,0,0,3,1,4,0,0,0-6,2-5a4.83,4.83,0,0,0,0,4s2-5,3-4c0,0-1,4,0,5,0,0,1.74-4.63,3-4,.33.17,4,0,6,2,0,0,0-1,2-4,1.59-.51-1-10-1-10l52-31,2-25c1-1,3,0,3,0,0-2-3-4-3-4s1-2,2-2c0,0-2-2-4-2,0,0,2-2,3-1,0,0-2-3-3-3,0,0,0-2,2-1,0,0-1-5-4-5a3.1,3.1,0,0,1,1-2,4.33,4.33,0,0,0-4-2,2,2,0,0,1,2-2s-6-4-8-4c0,0-2-4,1-3,0,0,1-2-2-4,0,0,2-2,4,1,0,0-1-6-5-5a2.05,2.05,0,0,1,3-2s-2-5-5-5c0,0,4-3,8,0a15.3,15.3,0,0,0-10-4s-1-3,5-1c0,0-3-4-10-1a4.33,4.33,0,0,1,4-2c-1-2-6-2-11,1,0,0-2-2,2-3a9.39,9.39,0,0,0-9,3s-1-1,0-4c0,0-1-1-4,0,0,0,3-5,5-5,0,0-3-1-7,2,0,0-3-3-2-5,0,0-1,0-1,5a7.65,7.65,0,0,1-2-5,6.93,6.93,0,0,0,0,5s-4-3-3-6c0,0-2,2-1,6,0,0-4-4-3-7,0,0-3,2-3,5,0,0-2-3-1-6,0,0-5,0-6,2s1-3,1-3-4,0-4,3c0,0-3-2-3-4,0,0,0,4,1,5,0,0-7-2-7-5a6.93,6.93,0,0,0,0,5s-5-3-6-6,0,1,0,1,3,7,4,9a4.94,4.94,0,0,1-3-1s-1,5,1,7c0,0-5,1-7-1,0,0-1,5,3,7,0,0-7,3-11,0l5,4s1,4-5,2C358,138,354,137,352,134Z" transform="translate(-75.52 -92)"/><g id="mouth"><path id="mouthBottom" class="cls-17" d="M439.71,236.26,425,226l-4,5s7,10,10,8Z" transform="translate(-75.52 -92)"/><path id="lips" class="cls-18" d="M444,232s-11,11-19,2,0,1,0,1l-1-3-3-1s2,9,11,9c10.05,0,14-6,14-6Z" transform="translate(-75.52 -92)"/></g><g id="tongue"><path class="cls-19" d="M446,220.18S454,235,445,236s-14.22-.91-18.11-4.95S436,215,436,215,445,215,446,220.18Z" transform="translate(-75.52 -92)"/><g id="tooth"><path class="cls-20" d="M427.86,236.41s1.07-3.15,2-3.15,2.81,2.81,1.87,3.75A4.74,4.74,0,0,1,427.86,236.41Z" transform="translate(-75.52 -92)"/></g></g><g id="noseHairRight"><path class="cls-21" d="M438,199s4-13,12-14,17,6,18,17c1.36,15-7,23-7,23a15.77,15.77,0,0,0-1-4s-1,6-3,7a13.05,13.05,0,0,0,1-8s-2,5-4,5c0,0,1-1,0-4,0,0-1,4-3,4,0,0,2-2,1-4a3.55,3.55,0,0,1-2,3s-8-7-9-10S438,199,438,199Z" transform="translate(-75.52 -92)"/></g><g id="noseHairLeft"><path class="cls-22" d="M436,217s-3,6-4,17c0,0-4-6-2-10a12.14,12.14,0,0,0-3,10s-2-2-2-4a4.83,4.83,0,0,0,0,4c-1,0-3-3-3-3s-2,3-1,5c0,0-3-1-3-2,0,0-1,4,0,5,0,0-3-2-3-3,0,0-2,4-1,6,0,0-4-3-4-5,0,0-4,5-4,8,0,0-3-2-3-4,0,0-3,3-3,5,0,0-3,0-3-2,0,0-2,5-1,8,0,0-3-4-3-7a16.85,16.85,0,0,0-4,8s-2.05-.06-5-5c0,0-2-3-6,3-2-4-6-6-8,0-1-6-3-3-3-3,0-4-1-10-3-3-1-19,7-34,17-38,13.29-5.32,43.41-11.53,54-8,8.16,2.72,10,16,10,16a13.38,13.38,0,0,1-1,5,7.74,7.74,0,0,0-1-3s0,3-2,4a15.77,15.77,0,0,0-1-4s0,4-1,5c0,0,0-4-1-4,0,0-1,9-2,10Z" transform="translate(-75.52 -92)"/></g><g id="eyeLeft"><path id="scleraGray" class="cls-23" d="M398,203a5.3,5.3,0,0,1-2.19.33h0c-1.81.13-5.65-.08-8.62-.24l-7.66.4s.41-.59,1.13-1.54l-2.18-6.07s7.6-7.9,16.85-8.8a1.58,1.58,0,0,0-.54.43c-1.81,2.19-.36,10.1.5,13.84a8.54,8.54,0,0,0,2.51,1.68h.09Z" transform="translate(-75.52 -92)"/><ellipse id="tearDuct" cx="330.48" cy="100.5" rx="2" ry="1.5"/><path id="pupil" class="cls-18" d="M406,193.09l0,0c0,2.87-1,7.87-8,9.87l-.14,0s-2.29.19-2.37.18c-5.61-.4-6.49-7.21-6.49-7.21s-1-6,5.76-8.48A9.69,9.69,0,0,1,397,187a20.61,20.61,0,0,1,4.49.46,11.12,11.12,0,0,1,3.1,2.41c.16.18.33.36.47.53s.4.49.56.71A6.53,6.53,0,0,1,406,193,.62.62,0,0,0,406,193.09Z" transform="translate(-75.52 -92)"/><path id="scleraDark" class="cls-17" d="M417,193c-.5,6.5-7.5,3.5-7,11-.56,2.25-7.5-.5-7,2-.5-2.5-3.94-3.35-5-3a10.06,10.06,0,0,0,2.5-2.5c1.5-3.5,5.48-7.37,5.48-7.37l0,0c.3-.37,1-.09,1-.09l-1.38-1.89c-.16-.22-.36-.46-.56-.71s-.31-.35-.47-.53-.1-.11-.17-.17a22.49,22.49,0,0,0-3.89-2.42,41,41,0,0,0-5.23-.19,8.33,8.33,0,0,1,2.2-.59,17,17,0,0,1,6.27.3C409.24,188.39,410.83,193,417,193Z" transform="translate(-75.52 -92)"/><path id="eyebrow" class="cls-24" d="M398,187s-1-5-11,0-11,13-10,15a1,1,0,0,1,1-1s-1,1,0,3a10.34,10.34,0,0,0,4,1l-1-2S386,188,398,187Z" transform="translate(-75.52 -92)"/><path id="reflection" class="cls-25" d="M399.66,189.5C400,191,397,190,396,191c-2,2-2.34,2.5-3,2-1-1,.3-3.08,2-4C398.36,187.81,399.19,188.5,399.66,189.5Z" transform="translate(-75.52 -92)"/></g><g id="eyeRight"><path id="pupil-2" data-name="pupil" class="cls-18" d="M438,171s-2-6-8-5c-7,1-4,9-4,9s2,7,9,5C440,178,438,171,438,171Z" transform="translate(-75.52 -92)"/><path id="reflection-2" data-name="reflection" class="cls-25" d="M430,172c-1,0-.91-3.27,2-4,4-1,5,3,4,3-2,0-1-1-3-1S431,172,430,172Z" transform="translate(-75.52 -92)"/><path class="cls-17" d="M425,172s7,8,11,6h3a13.79,13.79,0,0,1-8,3C425,181,425,172,425,172Z" transform="translate(-75.52 -92)"/></g><g id="nose"><g id="nose-2" data-name="nose"><path class="cls-26" d="M436,198s11-3,14,1c2,5,0,12-2,13s-10,2-15.1-1C433,201,436,198,436,198Z" transform="translate(-75.52 -92)"/></g><g id="nostrilRight"><circle class="cls-18" cx="373.48" cy="111" r="2"/><ellipse class="cls-18" cx="436" cy="208.5" rx="4" ry="2.5" transform="translate(-113.49 22.05) rotate(-14.29)"/></g></g><path id="earLeft" class="cls-14" d="M353,153v-4s-6-3-8-7c0,0,1-4-7-3,0,0-2-4-14-5-3,12-3,30-3,30s10,6,9,8-5,3-7,3c0,0,5,1,3,5,0,0,4,1,2,6,0,0,4,5,4,7,0,0,10-5,11-7s-2-10-1-13-1-3-1-5c0,0,2,1,3-3C344,165,339,162,353,153Z" transform="translate(-75.52 -92)"/></g></svg>