<svg xmlns="http://www.w3.org/2000/svg" viewBox="0 0 588.48 439.68"><defs><style>.cls-1{fill:#66a8cc;stroke:#66a8cc;}.cls-1,.cls-2,.cls-3,.cls-4,.cls-5{stroke-miterlimit:10;}.cls-2,.cls-3{fill:#fff;}.cls-2,.cls-4,.cls-5{stroke:#000;}.cls-3{stroke:#fff;}.cls-5{fill:none;}</style></defs><title>Alfreda</title><g id="body"><path class="cls-1" d="M66.5,47.5c2-.32-39.29-2-40,41-.62,37.31,15,75.11,32,77,20.25,2.25,54.38-2.13,45-20-9.73-18.54-34.15-32.93-51-24-81.89,43.38-9.73,69,31,96,14.19,9.41-14,207-14,207s19,26,30,12,17-16-2-20,24-161,24-161l73,16s83,8,128-27,20,178,20,178,17,25,30,11,18-28,0-26-6-175-6-175l86-74s154,3,150-42-53-92-100-94l-14-20-11,20-32-1-9-19-12,19s-99,3-95,43,9,71.2,89,84c25,4-21,30-21,30s-146-80-214-58-93.22,67.87-98,87c-1,4-52-22-60-36-6.67-11.68,17-36,38-40,17.41-3.32,24,11,24,11s11,12-17,16-43-63-30-85S66.5,47.5,66.5,47.5Z" transform="translate(-14.59 -1.46)"/><path class="cls-2" d="M182.5-54.5" transform="translate(-14.59 -1.46)"/></g><g id="eyes"><ellipse class="cls-3" cx="391.91" cy="61.54" rx="15" ry="10.5"/><circle class="cls-3" cx="483.41" cy="65.54" r="14.5"/><circle class="cls-4" cx="482.91" cy="67.04" r="9"/><circle class="cls-4" cx="390.91" cy="62.04" r="10"/></g><g id="whiskers"><path class="cls-4" d="M444.5,89.5s8-4,13-1-5,9-5,9S440.5,94.5,444.5,89.5Z" transform="translate(-14.59 -1.46)"/><path class="cls-5" d="M424.5,110.5c20,16,28-13,28-13s11.86,25.36,23,17" transform="translate(-14.59 -1.46)"/></g></svg>